# xmcd
#
# Track frame offsets:
#	150
#	16030
#	32644
#	51118
#	64406
#	78805
#	94079
#	109083
#	126826
#	139853
#	153313
#	169726
#	182982
#	202104
#	218813
#	233935
#	251449
#	267623
#
# Disc length: 3749 seconds
#
# Revision: 1
# Processed by: cddbd v1.5.1PL0 Copyright (c) Steve Scherf et al.
# Submitted via: audiograbber 1.83.01
#
DISCID=fe0ea312
DTITLE=Diversos - Alternativo Clássico Sertanejo Vol. 1
DYEAR=2004
DGENRE=Sertanejo
TTITLE0=Chitãozinho and Xororó (part. Almir Sater) - Amor distante
TTITLE1=Almir Sater - A saudade - Uma estrada longa
TTITLE2=Chitãozinho and Leandro and Zezé - Colcha de retalhos
TTITLE3=Chitãozinho and Xororó - Fio de cabelo
TTITLE4=Pedro Bento and Zé - Seresteiro da lua
TTITLE5=Tonico and Tinoco - Viola Cabocla
TTITLE6=Renato Teixeira and Pena Branca - Chalana
TTITLE7=Tião Carreiro and Pardinho - Menino da porteira
TTITLE8=Pena Branca and Xavantinho - Luar do sertão
TTITLE9=Trio Parada Dura - Cama vazia
TTITLE10=Chitãozinho and Xororó - Coração sertanejo
TTITLE11=Sérgio Reis - Sertão querido
TTITLE12=Chitãozinho and Xororó - No rancho fundo
TTITLE13=Tavares and Zé Negrão - Rio de lágrimas
TTITLE14=Chitãozinho and Pena Branca - Nhambú
TTITLE15=Tião Carreiro and Pardinho - Tristeza do jeca
TTITLE16=Trio Parada Dura - O carro e a faculdade
TTITLE17=Tonico and Tinoco - Viola de ouro
EXTD=
EXTT0=
EXTT1=
EXTT2=
EXTT3=
EXTT4=
EXTT5=
EXTT6=
EXTT7=
EXTT8=
EXTT9=
EXTT10=
EXTT11=
EXTT12=
EXTT13=
EXTT14=
EXTT15=
EXTT16=
EXTT17=
PLAYORDER=
